<?xml version="1.0" standalone="no"?><!DOCTYPE svg PUBLIC "-//W3C//DTD SVG 1.1//EN" "http://www.w3.org/Graphics/SVG/1.1/DTD/svg11.dtd"><svg t="1582944752920" fill='#00ff00' class="icon" viewBox="0 0 1024 1024" version="1.1" xmlns="http://www.w3.org/2000/svg" p-id="7037" xmlns:xlink="http://www.w3.org/1999/xlink" width="50" height="50"><defs><style type="text/css"></style></defs><path d="M460.992 845.056c19.136 0 34.304-17.152 34.304-38.656V379.968c0-21.504-15.168-38.656-34.304-38.656-19.136 0-34.304 17.152-34.304 38.656V806.4c0 20.992 15.68 38.656 34.304 38.656z m187.328 8.32c19.2 0 34.368-17.152 34.368-38.72V388.288c0-21.568-15.232-38.656-34.368-38.656-19.136 0-34.304 17.088-34.304 38.656v426.368c0 20.992 15.168 38.656 34.304 38.656z" p-id="7038"></path><path d="M986.944 138.368h-241.856v-35.648C745.088 46.08 698.56 0 641.408 0H385.28c-57.152 0-103.744 46.08-103.744 102.72v35.648H37.056a36.608 36.608 0 1 0 0 73.344h101.568v712.704c0 55.04 40.256 99.584 89.984 99.584h562.56c49.728 0 89.92-44.544 89.92-99.584V211.712h105.856a36.608 36.608 0 1 0 0-73.344z m-631.296-35.648a29.44 29.44 0 0 1 29.632-29.376h256.64a29.44 29.44 0 0 1 29.632 29.376v35.648H355.648v-35.648z m451.392 821.76c0 15.68-9.536 26.176-15.872 26.176h-562.56c-6.4 0-15.872-9.984-15.872-26.24V211.712h594.304v712.704z" p-id="7039"></path></svg>