<?xml version="1.0" standalone="no"?><!DOCTYPE svg PUBLIC "-//W3C//DTD SVG 1.1//EN" "http://www.w3.org/Graphics/SVG/1.1/DTD/svg11.dtd"><svg class="icon" width="200px" height="200.00px" viewBox="0 0 1024 1024" version="1.1" xmlns="http://www.w3.org/2000/svg"><path d="M973.84001008 882.0967019L596.7499928 505.12650802 971.20385394 130.5528207a59.79279363 59.79279363 0 0 0 0-84.71644081 59.79279363 59.79279363 0 0 0-84.71644081 0L512.03355199 420.29024101 137.45986469 45.83637989a59.91261697 59.91261697 0 1 0-84.836267 84.71644081L427.31710838 505.12650802 50.2270911 882.0967019a59.91261697 59.91261697 0 0 0 84.83626703 84.71644085L512.03355199 589.84295166l376.9701911 376.97019109a59.67296745 59.67296745 0 0 0 84.83626699 0 59.91261697 59.91261697 0 0 0 0-84.71644085" /></svg>
